<svg xmlns="http://www.w3.org/2000/svg" viewBox="0 0 2246.72 377.95"><defs><style>.cls-1{fill:#f1f1f1;}</style></defs><title>Asset 1</title><g id="Layer_2" data-name="Layer 2"><g id="Objects"><path class="cls-1" d="M304.38,161.2c2.86-5,4.5-8.19,4.5-12.49,0-13.4-15.8-24.59-35.45-24.89,0-.15,0-.46,0-.61,0-17-14.28-30.87-31.91-30.87A31.8,31.8,0,0,0,211.43,113a22.78,22.78,0,0,0-17.54-8c-12.27,0-22.21,9.24-22.21,20.66,0,.46,0,.91.07,1.37a30,30,0,0,0-7.54-1c-14.51,0-26.28,10.76-26.28,23.26,0,4.13,1.3,6.9,3.54,11.94Z"/><path class="cls-1" d="M1542.47,112.53c2.86-5,4.5-8.19,4.5-12.49,0-13.4-15.8-24.59-35.45-24.89,0-.15,0-.46,0-.62,0-17-14.28-30.86-31.91-30.86a31.81,31.81,0,0,0-30.11,20.63,22.78,22.78,0,0,0-17.54-8c-12.27,0-22.21,9.24-22.21,20.66,0,.46,0,.91.07,1.37a29.93,29.93,0,0,0-7.53-1c-14.52,0-26.29,10.76-26.29,23.26,0,4.12,1.3,6.9,3.54,11.94Z"/><path class="cls-1" d="M2196.5,219c2.86-5,4.5-8.19,4.5-12.49,0-13.4-15.8-24.59-35.45-24.89,0-.15,0-.46,0-.62,0-17-14.28-30.86-31.91-30.86a31.81,31.81,0,0,0-30.11,20.63,22.78,22.78,0,0,0-17.54-8c-12.27,0-22.21,9.24-22.21,20.66,0,.46,0,.91.07,1.37a29.93,29.93,0,0,0-7.53-1c-14.52,0-26.29,10.76-26.29,23.26,0,4.12,1.3,6.9,3.54,11.94Z"/><path class="cls-1" d="M848.31,130.78a16.71,16.71,0,0,0,3.5-9.77c0-10.42-12.28-19.15-27.55-19.38,0-.12,0-.38,0-.5,0-13.21-11.11-24-24.8-24a24.72,24.72,0,0,0-23.41,16,17.69,17.69,0,0,0-13.63-6.25c-9.54,0-17.26,7.18-17.26,16,0,.36,0,.71.05,1.07a23.27,23.27,0,0,0-5.85-.75c-11.29,0-20.43,8.43-20.43,18.15a18.74,18.74,0,0,0,2.75,9.34Z"/><path class="cls-1" d="M737.94,82.11c3.42-6,5.37-9.76,5.37-14.89,0-16-18.84-29.33-42.27-29.68,0-.18,0-.55,0-.74C701.07,16.53,684,0,663,0c-16.63,0-30.73,10.26-35.91,24.6A27.15,27.15,0,0,0,606.19,15c-14.62,0-26.48,11-26.48,24.62,0,.56,0,1.09.09,1.64a36.16,36.16,0,0,0-9-1.14c-17.32,0-31.35,12.83-31.35,27.73,0,4.92,1.55,8.23,4.22,14.24Z"/><path d="M0,323c9.65-11,19.37-22,28.89-33.12,2.1-2.46,6.78-5.09,5.57-7.52-1.4-2.83-6.34-.86-9.73-1.12-2.48-.2-5,0-7.49-.07-1.41-.06-3.34.66-4-1.06s1-2.69,1.93-3.77Q35,253.19,55,230.16c2.59-3,5.14-6,8.65-10.15-8.2,0-15.25.09-22.3,0-2.76-.06-6.82,1.4-8-.94-1.47-2.93,2.6-4.88,4.4-7,8.84-10.38,18-20.51,27.34-31.09-3-1.72-5.84-.78-8.49-1-2.49-.17-5,0-7.5-.07-1.44,0-3.35.41-4-1.26-.54-1.39,1-2.3,1.87-3.29L70.32,148c.5-.59.89-1.28,1.92-2.77-4.22,0-7.65.05-11.07,0-2.6-.06-3.49-1.17-1.61-3.36,7.72-9,15.49-17.88,23.22-26.82,1.59-1.84,3-1.06,4.17.34q10.83,13.08,21.55,26.26c2,2.4,1.1,3.57-1.81,3.61-.17,0-.34,0-.5,0-2.93.31-7.47-1.32-8.43.81-1.33,2.9,2.94,5,4.84,7.35,6,7.38,12.24,14.52,18.34,21.8.9,1.07,2.73,2,1.86,3.7-.78,1.52-2.66,1.06-4.11,1.07-5,.06-10,0-16.21,0,3.65,4.29,6.53,7.76,9.5,11.16,7.12,8.16,14.29,16.27,21.4,24.43.84,1,2.34,1.88,1.78,3.32-.69,1.77-2.56,1.21-4,1.22-7.16.06-14.33,0-21.49.07-1.25,0-3-.59-3.54,1-.43,1.19,1,2,1.71,2.83q22.38,25.92,44.74,51.84c1.11,1.3,3.4,2.42,2.32,4.48-.85,1.65-3,.92-4.62.94-5.6.07-11.21,0-17.81,0,3.31,5.64,7.48,9.24,10.91,13.38,7.22,8.72,14.73,17.21,22.09,25.82.92,1.08,2.63,2.1,1.82,3.75s-2.67,1-4.09,1c-22.33,0-44.66.16-67-.07-4.9-.05-6.34,1.56-6.17,6.3.32,8.65,0,17.33.13,26,0,1.71-.67,3.67,1.23,5.33,2.43-3.56,2-8.1,4.43-12,2.23,2.65,1.31,6,3,8.76,3.72-6.34,4.33-.46,6.6,2.11,1.11-5.17,2.1-9.81,3.09-14.45,3.69,5.55,2.49,13.21,9.33,16.7.08-.18.37-.76.66-1.32.79-1.55.37-4.18,2.46-4.46,1.71-.23,1.51,2.24,2.31,3.42a3.37,3.37,0,0,0,3,1.52c1.59,0,1.37-1.6,1.81-2.6.85-1.94.32-4.36,2.38-6.35,1.55,3.36,1.72,7.81,7.18,7.86.67-.71.05-3,1.76-4,2.35.64.59,5.43,5.74,4.19,4.45-1.07,1.82-5.46,5.19-6.19,1.92,1.39,1.4,4,2.57,6.37,1.26-.07,3-3.53,4.33.26.75,2.21,3.33-.13,5.21,1,1.25.74,1.12-1.88,1.48-3,.53-1.72.87-3.5,1.3-5.29,2.82.13,1.63,3.16,3.35,4,2-.72.12-4,2.37-4.2,1.71-.18.91,2.25,2.23,3.16,1.21-2.18-.32-4.95,1.78-7.3,2.62,3.85.3,10.92,8,10.4,1-1.59.24-4.82,2.49-7.36,1.7,3,1.74,6,5.07,8.17,3.88,2.55,4.27,1.41,5.37-1.73.52-1.48.48-3.37,2.71-4.46.32,5.52,5.42,4.67,8.92,6.91,1.25-5,2.46-9.89,3.88-15.65,2.78,4.2,1.58,8.33,3.36,12.14,1.58-1.73,3-3.42,3.07-5.79.09-6,.33-12-.05-18-.35-5.55-8.59-11-13.89-9.73a11.06,11.06,0,0,1-12-4.14c-2.91-3.63-2.94-7.78-1.25-11.81,1.87-4.45,5.67-6.34,10.37-6.56,1.11-.06,2.23.76,3.36,0-11.08-14.6-11.32-28.1-.7-38.56,8.94-8.81,23.84-9.82,33.46-2.26,11.54,9.07,13.44,22.74,5.11,37.16.85.9,1.41-.08,2-.36,7.14-3.51,14.18-2,18.67,4.06,3.75,5.06,3.28,13.39-1,18.09-5,5.43-12.34,6.24-19,1.73-2.16-1.46-3.74-1.85-5.65,0a17.63,17.63,0,0,1-2,1.51c-12.16,9.25-12.47,9.28-10.94,24.38.48,4.78,3.12,9.33,4.88,14.28,3.41-6.17,2.64,1.07,4.45,1,.84-2.07,1.69-4.17,2.6-6.44,3.09.67,2.57,7.33,6.82,4.42,2.23-1.52,1-5.72,3.58-8.61.82,3.8,1.58,7.3,5.61,7.89,2.62.38.92-3.25,3.43-3.57.87,2.66,3,4.82,6,4.54,3.72-.35,1.31-5.45,4.45-6.72,1.72.68,1.21,2.52,1.8,3.78s.35,3.1,2.79,1.4c2-1.39,3,1.84,5.33,2.28,4.28.8,3.47-1.25,3.93-3.34.35-1.59.79-3.17,1.2-4.84,2.92.61,1.72,3.53,3.29,4.77,1.55-1.22.47-3.78,2.25-4.92,2.11.61,1.13,3,2.56,4.19,1.65-3.1.74-6.9,3.46-10.59.43,3.22.64,5.58,1.09,7.9.34,1.7.28,3,2.92,4.06s2-.19,2.49-1.21c.75-1.59.18-3.68,1.75-5,1.9.6,1.56,2.32,1.51,3.36-.19,4.1,3.79,4.29,5.82,5.76s2.89-1.7,3.65-3.54c.48-1.15.39-3,2-3.14s1.41,1.6,1.87,2.56c1.53,3.17,6.12-.56,7.7,3.42l3.69-12c2.83,2.54,1.46,5.93,3.4,8.49,4.1-5.91,4.32.65,6.7,2.34a13,13,0,0,0,2.25-7.25c.25-7.16.1-14.33.18-21.49,0-3.5-2.29-3.48-4.75-3.48-9.5,0-19,0-28.5,0-5.79,0-6.14-.43-4.7-6q13.41-52,26.88-104c4.15-16.13,8.2-32.28,12.3-48.42.2-.8.3-1.67,1.43-2,2.17,1.44,2,4,2.53,6.13q15.33,58.74,30.57,117.52c.4,1.5.08,3.88,1.95,4.24s2.52-1.86,3.62-3,2.26-2.45,3.3-3.75c1.21-1.53,3.79-2.77,3.25-4.7s-3.21-.77-4.91-1c-2.77-.46-2.42-1.78-1.08-3.38,2.68-3.19,5.43-6.31,8.12-9.5,1.26-1.5,2.06-2.91-1-3.23-2.74-.29-2.43-1.68-1-3.33.64-.76,1.29-1.54,2-2.23,3.15-3.08,5.45-9.56,9.3-8.77,4.83,1,7.12,7.4,10.62,11.36,1.43,1.62.83,2.79-1.3,3-3.19.26-2.1,1.77-.94,3.19,2.32,2.83,4.74,5.59,7.08,8.41.82,1,2.3,1.9,1.82,3.33-.64,1.85-2.55,1-3.93,1.21-1,.15-1.93.18-4.11.38,4.29,5,8,9.31,11.73,13.66.94,1.11,2.72,2.11,2.18,3.67-.7,2-2.86,1.05-4.41,1.24-2.42.3-4.93-.51-8,.87,3.71,4.37,7.19,8.51,10.72,12.61,3,3.53,6.17,7,9.18,10.56.9,1.07,2.54,2.11,1.69,3.8-.69,1.38-2.33.94-3.62,1s-2.87.23-5.43.43c4.82,5.61,9,10.47,13.18,15.35.84,1,2.3,1.92,1.81,3.33-.65,1.85-2.56,1.15-3.94,1.16-6.66.08-13.33,0-20,.09-2,0-5.1-.9-4.8,2.5.16,1.83-1.58,6.47,3.78,5,.32-.09,1,1.15,1.8,2.1.8-2.52,1.53-4.8,2.22-7,1.4-.07,1.92.73,1.81,1.53-.59,4.46,3.37,5,5.82,6.68,1.4,1,2.32-.24,2.91-1.67.93-2.24.87-4.9,2.71-6.72a2,2,0,0,1,1.72,2.25c.05,4.81,5.1,3.28,7.22,5.61.82.9,1.25-1.45,1.63-2.39,1.18-3,1.05-6.48,3.22-9.29,1.4,1.34,1.49,2.88,1.79,4.31.42,2-.24,4.73,3.53,1.95,2.18-1.62,2,3.24,4.42,3.57,2-1.79,1.38-5,3.32-6.89,1.78.42,1.57,2.07,2.25,3.12,1.1,1.68-.06,5.91,4.43,4.11a35.63,35.63,0,0,1,1.77,3.33c2-1.74,1.29-4.82,3.21-6.31,3.09-.75.63,6.53,5.7,3.41,3.06-1.88,1.82-5.13,4.14-7.72,2.14,3,.63,9.33,7.38,8,.91-.67-.28-3,1.87-4.08,1.4,2,1.88,5,5.83,4.4,4.22-.67,1.45-5.25,5-6.18,1.33.27.85,2.12,1.45,3.34s-.14,4.83,3.17,1.55c1.12-1.1,2.63,1.89,5,2.22,3.23.45,3.67-.24,4-2.72.24-1.8.39-3.63,1.61-5.16,2.28.51,1.27,3.25,3,4.25.6-1.55,1.17-3,1.74-4.5,2,.15,1.52,2.08,2.59,2.9.5-2.21,1-4.38,1.57-6.93,2.44,2.56,2.29,5.56,2.68,8.16.56,3.79,4.92-1.53,5.27,2.52.72-2.44,1.44-4.88,2.16-7.35a2.6,2.6,0,0,1,1.88,3c-.75,4.71,4,4.09,5.95,6,1,.94,2.25-.6,2.91-1.9.88-1.72.81-3.92,2.55-5.26,2.26,1.18,1.36,4.1,3.48,5.72,1.75-3.29,3.85-4.63,5.88.23,2.34-3.64,1.93-7.82,4.36-11.15,1.93,2.43,1.44,5.3,2.54,7.63,3.49-2.07,3.49-2.07,6.91,2.36,2.32-1.7,1.4-5.08,3.56-6.87,1.69.25,1.32,2.19,2.18,2.84,1.62,1.24-1,6.78,4.44,4.33.73-.33.9,2.56,1.74,3.88,1.7-2.14,1.39-5.19,3.53-7.33,2.57,1.35,2.42,7.31,6.3,4.92,1.86-1.15,1.8-5.42,3-9.67,1.79,4.41,2.06,8.88,7.61,8.83.82-.51.14-2.63,1.51-4.12,1.92,1.7,2.06,5.33,6.11,4.47s2-5.27,4.92-6.37c2.08,1.85,1.42,4.73,2.81,7.08,1.21-.26,1.69-4.47,4.21-.58,1.84,2.82,6.24.95,6.92-2.52.31-1.61.29-3.32,1.57-4.65,1.91.82,1.45,2.93,2.79,4.37,1.38-1.19.44-3.59,2.3-4.53,1.92.36,1,2.85,2.39,3.66.45-2.43-.22-5.06,1.73-7.61,2.21,3.44,1.62,7.43,3.31,11.11,1.24-3.78,2.74-2.69,4.12.45.9-3.23,1.6-5.75,2.3-8.25a2,2,0,0,1,1.82,2.3c-1,4.65,3.82,4.41,5.69,6.57,1,1.18,2.55-.41,3.26-2,.81-1.75.7-4,2.65-5.21,2.08,1.42,1.45,4,2.76,5.85,1.16.18,1.48-2.25,2.61-1.34,6.5,5.21,4.65-1.91,5.89-4.06.93-1.62,1.19-3.63,2.93-5.41.61,2.46,1.23,4.91,2,7.94,3.65-4.65,4.82-.49,6.58,1.87,2.84-1.63,1.56-5.52,4.23-7,1.86,1.54,1.7,4,2.76,5.79.5.87-.47,4,2.86,1.7,1.74-1.21,1,2.77,2.54,3.56,1.65-2,1.08-5.22,3.53-7,.41.39.9.64,1,1,.81,2.11,2,4.54,4.25,4.33s1.57-3.15,2.21-4.86c.51-1.37.5-2.95,1.88-4.22,2.34,2.68.4,9,7.28,7.19l1.41-3.69c2.49,1.22,1.56,5.47,6.24,4.62s1.36-5.83,5-6.43c1.06.21.88,1.49,1.44,2.2.95,1.2-.78,6.2,3.83,2.74.43-.33,2.82,1.83,5,2.34,2.74.64,2.83.1,3.43-2s0-4.41,1.93-6c2,.72,1.24,3.32,2.82,4.31,1.45-1.24.26-3.47,2.09-4.53,2.15.28,1,2.92,2.55,3.68.54-2.39-.17-5.1,1.38-8.15,2.43,3.91,1.91,7.92,3.57,11.77,1.3-3.65,2.66-3.61,3.66.19,2.1-2.57,1.13-5.86,3.22-8,1.54.86,1.69,2.53,1.7,3.83,0,4.08,4.25,3.09,6,5.14.68.79,2.07-1,2.68-2.27.79-1.61.79-3.62,2.36-4.84,1.49,0,1.54,1.33,1.66,2.1.74,4.63,6,1.11,7.64,4.25a8.33,8.33,0,0,0,1.3-2.38c.83-3,1.68-6,2.71-9.66,2.83,2.81,1.55,6.22,3.45,8.77,3.93-6.07,4.45.08,6.43,2.3,2.32-2.2,1.35-5.93,4-7.9,2.28,2.8,2.23,6.37,4,9.39,3.27-6.27,2.59,1,4.33,1.11.25-.49.55-1.05.83-1.62.78-1.56.39-4.17,2.45-4.48,1.74-.25,1.53,2.22,2.32,3.4a3.41,3.41,0,0,0,3,1.54c1.61,0,1.39-1.58,1.82-2.58.85-1.94.34-4.36,2.57-6.55,1,3.82,2,7.62,6.92,8.16.9-.73,0-3.2,1.89-4.13,2.32.57.53,5.42,5.68,4.16,4.44-1.08,1.85-5.43,5.34-6.21,1.56,1.51,1.44,3.95,2.28,6.38,1.38.06,3.19-3.56,4.47.25.76,2.27,3.33-.1,5.2,1,1.29.76,1.14-1.86,1.49-3,.54-1.72.87-3.51,1.3-5.28,2.93,0,1.49,3.22,3.57,3.86,1.78-.62-.07-3.85,2.14-4.11,1.77-.2.9,2.26,2.27,3.13,1.22-2.13-.34-4.92,1.69-7.2,1.89,2.55,2,5.42,2.37,8.05.52,3.46,5.36-1.17,4.69,3.62,2.17-2.86,1-6.23,3.55-8.49,1.71,2.67,1.5,5.82,5,8,3.84,2.37,4.28,1.53,5.38-1.7.51-1.48.5-3.36,2.17-4.22,1.2.08,1.41,1,1.47,1.77.4,5,5.72,2,7.67,4.58.19.26,1.1-1.39,1.37-2.31.87-3,1.69-6,2.66-9.55,3,2.57,1.72,6.06,3.46,8.67,4.16-6.23,4.47.47,6.84,2.27l3.13-8.19c3,2.81,2.72,6.66,4.6,9.65,3.2-5.54,2.79.26,3.7,1.64,2.21-2.09,1.68-5.11,3.77-6.87,2.4,1.35,2.2,7.05,6.25,4.55,2.3-1.42,1-5.71,3.57-8.5,1.08,3.63,1.64,7.61,6,7.86,2.12.12.58-3.17,3.14-3.68,2.12.18,1.61,5.29,2.8,4.11,2-2,3.91,3.12,4.87-.57a14.53,14.53,0,0,1,3.32-7.11c-.65,6.77,4.44,7.56,7.6,8.71,7.08,2.58,4.93-5.23,7.19-8.14,2.35,1,1.5,3.44,2.8,4.77,2.14.42-.19-7.6,4.83-2.62,1.44-1.49-.25-4,1.57-6.17,3,3.21.35,10.75,7.86,10.08,1.38-1.8.54-4.89,2.48-7.05,1.83,1.57,1.25,3.62,1.92,5.24,1.1,2.66,4,2.73,5.91,4.24.85.66,1.94-.87,2.44-2,.73-1.64.89-3.56,2.43-5.06,2.36.63,3.08,3.28,5.46,4.53,5.84,3.06,5-.93,5.9-3.62.69-2,1.24-4.09,2-6.77,2.86,2.6,1.49,6.16,3.44,8.56,4.11-5.81,4.41.85,6.63,2.21,2-2.06,1.24-5.46,3.32-7.42,1.89.27,1.39,2.26,2.29,3,1.55,1.23-.91,7.1,4.43,3.92l1.71,2.92c2.22-1.38,1.39-4.48,3.54-5.92,2.76.59,1.74,7.72,6.27,4.35,1.89-1.41,1.94-5.3,3.08-8.86,2.38,3.66.68,9.65,7.88,8.11.55-.21-.55-2.55,1.62-3.62,1.39,1.92,2,5.38,5.78,4.2,1-.31,1.13.05,4.51-6.45,2.46,1.58,1.75,4.47,3.06,6.89,1.26-.46,2.56-3.59,4.33.05,1.16,2.39,6.14.36,6.74-2.59.33-1.6.8-3.17,1.19-4.69,1.64,0,1.78,1.07,2.14,1.94s.65,1.83,1,2.75c2-.67-.36-7.75,5-2.93.37-2,.71-3.91,1.2-6.55,3.2,3.85.43,11.24,8.21,10.6,1.12-1.51.34-4.42,2.22-6.16a1.49,1.49,0,0,1,1.48,1.8c-.79,4.74,3.7,4.73,6,6.53,1.24,1,2.39-.42,2.91-1.8a33.87,33.87,0,0,0,2.62-12.1c-.11-28.5,0-57-.08-85.49,0-3,0-5.5,4-6.17,2.83-.47,2.07-2.68,1.22-4.73-2.58-6.28-1.43-11.3,2.93-13.46,3.65-1.81,7.76.14,8.17,4.19.33,3.26.69,6.6-1.09,9.76-1,1.71-1.08,3.73,1.62,4.17,2.36.39,3.17-1,3.43-3.18.3-2.48-1.3-6.2,2-7.06a30.72,30.72,0,0,1,14.33.05c1.28.29,1.49,1.7,1.62,2.87.36,3.3-.76,7.25,4.21,8.36,1,.22,1,1.74.47,2.62-1.81,2.76-1.15,5.82-1.16,8.76-.06,17.17,0,34.33,0,51.5,0,2.84-.05,5.26,4,5.34s4.5-2.17,4.5-5.39q-.08-59.5,0-119c0-7.5,0-7.5,7.45-7.53h3c10.54,0,10.61,0,11.54-10.34.24-2.65,1.23-4,4-3.95,5,0,10,.08,15,0,3-.06,4.27,1.32,4.26,4.19,0,2.33,0,4.67.07,7,0,1.52.08,3.35,2,3.56,4.23.45,4.52,2.29,2.76,5.7-.7,1.36-.46,3.26-.46,4.91q0,57.5,0,115c0,1.66-.91,4.74,1.12,4.72,2.5,0,1.51-3.14,1.54-4.92.13-7.33.74-14.75-.12-22-1-8.34,3.08-15.73,3.1-23.82,0-3.33,4.18-5,7.84-3.55,1.74.68,3,1.17,5.06.31,5.17-2.19,8.21.11,8.49,5.8.09,1.9-.8,4.14,1.18,5.58a4,4,0,0,0,6.21-3.38c.13-3.47,1.69-4.8,4.93-4.73,2.17.05,4.34,0,6.5.09,1.16,0,2.69.11,3.1,1.24,1.25,3.5.27,7.89,4.46,10.27.29.16-1.31,2.92-1.32,4.48-.1,19.66-.08,39.33-.06,59,0,1.49-.07,3.3,2,3.42,2.4.13,2.52-1.84,2.48-3.51-.4-20.79.54-41.58-.32-62.4-.17-4.18,1.51-9.65,3.3-14.23.79-2,3.41-3.29,5-2.3,5,3.08,11.44-3.83,15.66,2.52,1.38,2.08.8,4.54.82,6.84,0,2.57.77,4.07,3.69,4.13s3.86-1.44,3.61-4c-.35-3.73,1.38-5.15,5-4.89,2,.15,4,0,6,.06,1,0,2.73.14,2.81.51,1,4.43,5.32,8,5.13,12.12-.63,14,0,28-.27,41.95,0,1.27-.13,3,1.79,2.94s1.63-1.84,1.65-3.11c.06-4.83,0-9.66,0-14.5q0-50.73,0-101.48c0-3.93-.59-8,5.52-7.6,2.25.15,2.36-1.9,2.4-3.63.06-2.67-.77-7.12.35-7.69,5.74-2.91,4.18-8.59,6.11-12.87.86-1.93,3.07-3.87,5.72-3,2.4.82,4.57,2.38,4.38,5.4-.22,3.57.25,6.28,4.82,6.23,1.55,0,1.85,1.72,1.94,3.08s.08,3,.09,4.5c0,7.36,0,7.36,7.26,8a10,10,0,0,1,8.85,9.68q0,31.25,0,62.49c0,2.42-.51,5,2.54,6.4,2,.93,1.41,3.21,1.42,5,0,10.34.16,20.67,0,31-.07,4,1,5.85,5.32,5.6a129.25,129.25,0,0,1,15,0c4.51.27,6-1.66,5.63-5.88a44.82,44.82,0,0,1,0-4.49q0-77,0-154c0-3.71.11-6.51,4.16-9.81a16.19,16.19,0,0,1,10.5-4c2.16-.12,2.83-1.41,2.83-3.33,0-3.66,0-7.33,0-11,0-1.65-.4-3.51.74-4.84,2.09-2.44,4-6.92,7.23-5.81,3.56,1.23,7.28,4.31,7.56,9.08a93.71,93.71,0,0,1,0,11c-.21,3.65,1.12,5,4.86,5,7.27,0,7.28.15,7.28,7.48q0,30.5,0,61c0,1.56-.61,3.33,1.13,4.94,2.16-2.66,1.2-5.71,1.11-8.4-.15-4.35,1.06-6.37,5.88-6.19,7.06.26,7.06,0,7.11-7,0-2.77.12-5.19,2.23-7.76s.91-6.77.77-10.2c-.2-4.4,1.52-5.78,5.81-5.81,13.26-.1,13.36-.25,13.82,12.63.11,3.28,1.32,4.46,4.48,4.32,3.33-.14,6.68.16,10-.06,4.09-.27,5.62,1.34,5.56,5.48-.17,13.49,0,27-.08,40.49,0,3.39-.15,6.48,4.65,6.34,1.86-.06,2.4,1.51,2.44,3.16,0,1.5,0,3,.08,4.49s-.24,3.5,2,4a2.56,2.56,0,0,0,2.76-.66c1.33-1.63.29-3-.47-4.53-2.41-4.88-1.21-11.07,2.29-12.77,4-1.94,8.09.16,8.24,4.55.11,3.17.89,6.41-2,9.34-2,2.05-.65,4.18,2.32,4.15,3.91,0,4.68,2.13,4.64,5.45-.1,8.5-.07,17,0,25.5,0,1.49-.72,3.4,1.44,4.37,2-1.54,1.16-3.71,1.17-5.55q.09-30.49,0-61c0-3.5,1-5,4.51-7.29,4.82-3.13,9.31-3.18,14.25-3.44,2-.1,3-1.18,3-3.19,0-1.5.14-3,0-4.49-.38-4.34.2-7.69,5.86-7.21,2.62.22,3.18-1.65,3.37-3.93a7.93,7.93,0,0,1,7.65-7.4,8.19,8.19,0,0,1,7.77,7.31c.15,2.24.54,4.07,3.22,4.08,3.87,0,4.71,2.34,4.55,5.61-.08,1.49,0,3,0,4.5-.07,2.61.43,4.65,3.73,4.61,2.48,0,3.47,1.65,2.63,3.64-2.1,5-1.18,10.2-1.23,15.3-.14,14.83,0,29.66,0,44.5a35.27,35.27,0,0,0,.2,4.48,2,2,0,0,0,2.43,1.93,2,2,0,0,0,1.93-1.94c.15-1.65.18-3.32.19-5q0-40.24,0-80.49c0-6.81.31-7.08,7-7.15h.5c10.93-.07,11-.07,11.39-10.95.1-3.33,1.25-5,4.64-5,.67,0,1.34,0,2,0,15.41-.07,12.54-.52,12.77,11.86,0,2-.17,4,2.38,4.91,2.75,1,1.75,3.69,1.75,5.68q.11,41,0,82c0,3.41.61,5.41,4.64,5.15,2.75-.17,4-1.17,3.83-3.91-.46-7,4.67-13,3.44-20.18-.39-2.27,2.09-2.64,4-2.66,3.33,0,6.66-.07,10,.05,3.09.11,4.85-1,4.51-4.32-.43-4.11,1.72-5.24,5.4-5a48,48,0,0,0,7.49,0c4.58-.42,7.57.64,6.79,6.12-.17,1.18.16,2.63,1.47,2.86,4.47.8,4.34,4.17,4,7.3-1.28,11.85,2.87,23.35,2.17,35.15-.06,1.08-.21,2.84,1.23,2.87,2,0,1.34-1.92,1.39-3.09.12-2.66,0-5.33.06-8,.07-2.91-.6-5.91,2.32-8.22.83-.66.65-2.81.66-4.27,0-9.33.58-18.71-.15-28-.59-7.48,3.17-14.14,2.73-21.47-.11-2,1.51-2.84,3.4-2.9,2.16-.07,4.33-.09,6.5-.09,9.51,0,9.51,0,10.56,9.55,2-1.72,2.19-3.79,2.22-5.92,0-2.33,0-4.67.12-7,.23-4,3.16-5.59,6.43-5.63s5.68,1.93,5.47,5.73c-.31,5.6.49,10.62,4.13,15.43,2.66,3.51.74,8.43,1.08,12.71.21,2.72-.66,5.63,2.28,7.71.77.55.73,2.47.75,3.77.09,4.5,0,9,.06,13.5,0,3.24-.63,6.55,2.26,9.31.92.87.65,3.16.65,4.8.06,10.49,0,21,.07,31.49,0,1.23-.53,3.34,1,3.42,2.21.12,1.46-2.17,1.48-3.45.1-7,.29-14,0-21-.22-4.89,1.26-7.32,6.45-6.64a21.15,21.15,0,0,0,4.5,0c4.56-.41,8.08.27,7.44,6.18-.13,1.15.35,2.47,1.91,2.37s1.71-1.47,1.64-2.63c-.25-3.9,1.55-5.15,5-7.38,4.48-2.88,8.51-3.44,13.22-3.59,3.15-.1,3-2.53,3-4.72,0-10.33.12-20.66,0-31,0-4.07.6-6.91,5.63-6.47,1.87.16,3.41-1.21,5-2.15,6.44-3.84,12.84-7.74,19.3-11.54,4.26-2.49,4.88-2.08,5.07,3a31.43,31.43,0,0,1,0,3.5c-.26,3.57.74,5.57,4.94,5.58s5.13-1.63,5.11-5.38c0-6.73.15-6.74,7.15-6.77,7.61,0,7.62,0,7.62-7.62q0-30.24,0-60.49c0-3.5-.65-7.32,4.91-7.17,1.91.05,2.15-1.79,2.18-3.35,0-2.33,0-4.66,0-7,0-3.67-.67-7.69,5.07-7.63,1.37,0,1.5-1.48,1.9-2.6a7,7,0,0,1,7.89-4.71c3.31.45,7,1.88,6.68,6.61-.17,2.6.78,4.3,3.64,4.11,4.41-.28,5.2,2.21,5.18,5.95,0,7.76.11,7.74,8,7.81,2.9,0,6.27-.83,7.18,3.43.06.3.34.74.58.77,7.72,1.2,5.21,7.22,5.23,11.67.12,34.83,0,69.65.1,104.48,0,2-.76,4.29,1,6.07,2.11-.9,1.47-2.62,1.5-4,.1-4,0-8,0-12,0-6.62,3-10.05,9.74-10,4.81.07,6.74-1.52,6.18-6.32-.31-2.61-.08-5.14,3.6-5.18,1.62,0,2.22-1.16,2.42-2.65.54-3.89,3.74-4.71,6.66-4.62,2.71.08,3.83,2.37,5.2,5,2.25,4.34,6.54,7.61,6.8,13.08,6.15,1,4.7,5.79,4.74,9.73.07,9-.09,18,.07,27,.08,4.13-1.37,8.64,2.64,12.1.72.62.41,2.54.42,3.86,0,5.67.07,11.34,0,17,0,2.41.87,3.76,3.46,3.81s4.09-1,4-3.81c0-1.33,0-2.67,0-4,0-19.66.08-39.33,0-59,0-4,1.23-6,5.44-5.51a38.11,38.11,0,0,0,4,0c8,0,8.1,0,9.5-7.74.37-2.06,1.44-2.91,3.32-3,2.83-.08,5.68.12,8.49-.14,5-.48,8.17.83,7.6,6.68-.09.88.35,2.45.93,2.67,5,1.84,3.87,6,3.89,9.7.06,10.83,0,21.66,0,32.49,0,2.35-.08,4.65,2.43,6.1,2.09,1.2,1.67,3.47,1.69,5.42,0,5.19,0,10.38,0,15.57h1.75v-9.65c0-6.33.66-12.75-.16-19-1.09-8.17,3.51-15.23,3.35-23.19-.06-3,3.31-4.09,6.15-3a9.51,9.51,0,0,0,6.69.11c4-1.23,6.62.91,8.24,4.42.4.88.2,2.44.79,2.77,2.06,1.17,1.7,5,4.65,4.67,3.2-.39,1.82-3.41,2.19-5.32a2.79,2.79,0,0,1,3.11-2.53c2.66,0,5.33,0,8,0,1,0,2.65.3,2.54,1.11-.76,5.75,5.34,8.9,5,14.8-.64,10,0,20-.23,30-.08,3.92,1.34,5.55,5.24,5.17a29.69,29.69,0,0,1,5,0c3.21.22,4.71-1.14,4.37-4.38-.39-3.62.78-5.76,4.87-5.62,3.14.11,3.18-2.25,3.18-4.52,0-9.84.18-19.67-.07-29.5-.12-4.53,1.38-6.29,6-6.08,6.49.29,13-.16,19.49.15,4.45.21,5.7-1.42,5.68-5.75-.15-33.16-.09-66.33-.08-99.49,0-3.26-.64-6.66,3.78-8.12,2-.66,1.42-3.16,1.47-4.94.38-14.55.37-14.55,15.13-14.52,1.34,0,2.67,0,4,0,2.86,0,4.26,1.26,4.17,4.26-.11,4,0,8,0,12,0,2.11.66,3.58,3.08,3.63,2.6.06,3.55-1.41,3.53-3.76s0-4.35-1.76-6.46c-2.93-3.49-1-8-1.36-12.06-.39-4.26-.23-8.15,4.71-10.37,4.72-2.13,10.53.36,10.41,5.61-.13,6.25,2,12.69-2.31,18.78-2.64,3.75-.11,7.89,4.38,8.37,3.24.36,4.21,2,4.17,5-.07,6.66.11,13.33-.05,20-.08,3.45,1.24,4.74,4.69,4.66,7.17-.17,14.33-.07,21.5,0,1.58,0,3.56-.42,4.16,1.79.56,2-.62,3.08-2.39,3.72s-1.83,2.2-1.84,3.73c0,2.5.1,5,0,7.49-.23,3.89.07,7,5.33,6.68,3.26-.19,3.39,2.6,3.41,5,.05,6.5.18,13,0,19.49-.12,3.9,1.35,5.27,5.26,5.23,7-.09,7,.11,7.16,7.08,0,2.46,0,4.49,3.34,5,2.92.48,2.22,3.36,2.24,5.38.08,11.67,0,23.33.06,35,0,2.1-.45,4.44,2,5.71v72c-2.83.09-5.65.27-8.48.27H1678.39c-93.48,0-187,.49-280.43-.14-93.17-.62-186.37,2.67-279.52-1.79q-352.16,0-704.31.05c-4.73,0-9.64-1.11-14.15,1.65a3.71,3.71,0,0,1-3.32-.33c-2.26-1.66-4.73-1.36-7.2-1.36H274q-22.49,0-45,0c-2.08,0-4.56-.56-5,2.63h-6c-.45-3.2-2.94-2.62-5-2.63-8.83,0-17.65,0-26.48,0q-45.46,0-90.93,0c-2.18,0-4.93-.83-5.55,2.62H79c-.41-2.78-2.49-2.65-4.54-2.65-6.16,0-12.31,0-18.47,0-1.76,0-3.91.28-4.18-2.36-.65-6.34,1.57-12.12,2.59-18.48,2.46,1.28,1.83,3.28,3,4.21,1-2.37-.68-5.44,2.18-8,1,4.1,1.82,7.67,2.85,12,1.62-5.21,2.9-1.75,4-.55,1.78-2.48.73-5.78,3.21-7.81,1.22,1.74.85,4,1.82,5.24,1.3,1.69,3.5,3.49,5.45,3.66,2.52.22,1.86-2.64,1.88-4.3.08-9,0-18,0-26.95,0-6.78,0-6.78-7-6.8L0,325Zm352.53,35c1.22.29,1.47,1.3,1.78,2.24.49,1.47,1.05,2.81,3,2.82,2.52,0,2-2.13,2.65-3.51.8-1.7.1-4.06,2.21-5.26,1.88,4.29,1.88,4.29,6.74,8,1.46-1,.05-3.86,3-4.27.43,3,1.9,4.57,5.34,4.21,4.12-.44,1.46-5.62,5-6.32,1.68,1.75,1.3,4.31,2.31,6.34,2.2-1.81,4-1.77,5,1.21,1.74-1.93,4.19,1.29,5.26-.25,1.76-2.53,1.08-5.8.75-8.73-.29-2.56-2.61-2.12-4.36-2.13-9.15,0-18.29,0-27.44-.07-1.37,0-3.27.7-3.93-1.14-.51-1.42,1-2.34,1.8-3.31,3.59-4.15,7.27-8.22,10.8-12.42.75-.89,2.83-2.87-.05-3.17-6.72-.7-12.91-4.17-20-3.08-3.65.55-5.45,1.2-5.27,5.21.24,5.31,0,10.64.07,16,0,4.55-.52,9.2,1.82,13.56C351.15,362.31,350.3,359.19,352.53,358ZM239.16,303.24c-3.3,2-6.32,4.2-9.88,4.84-4.45.78-5.8,3.27-5.22,7.33.43,3-1.61,7.4,1.06,8.77,2.23,1.14,4.76-2.85,7.1-4.59,1.89-1.41,5-2.27,4.77-5.24A22.29,22.29,0,0,1,239.16,303.24ZM208.66,306c2.18,2.86,4.14,5.92,3.4,9.55-1,4.73,1.81,6.81,5.43,9.36.63-5.23,1.28-10.1-.19-14.54C216.2,307,211.35,308.16,208.66,306Z"/></g></g></svg>