<svg height="35pt" viewBox="-4 1 511 511.99998" width="35pt" xmlns="http://www.w3.org/2000/svg"><path d="m51.699219 145.066406h366.933593v281.601563h-366.933593zm0 0" fill="#ea9d2d"/><path d="m51.699219 145.066406h264.535156v281.601563h-264.535156zm0 0" fill="#fbb540"/><path d="m94.367188 8.53125h290.132812v136.535156h-290.132812zm0 0" fill="#6fbbc6"/><path d="m94.367188 8.53125h238.933593v136.535156h-238.933593zm0 0" fill="#aedee2"/><path d="m94.367188 8.53125h238.933593v68.269531h-238.933593zm0 0" fill="#b3e4e8"/><path d="m333.300781 8.53125h51.199219v68.269531h-51.199219zm0 0" fill="#8aced8"/><g fill="#99d8aa"><path d="m410.097656 34.132812h17.066406v17.066407h-17.066406zm0 0"/><path d="m410.097656 68.265625h17.066406v17.066406h-17.066406zm0 0"/><path d="m410.097656 102.398438h17.066406v17.066406h-17.066406zm0 0"/><path d="m51.699219 0h17.066406v17.066406h-17.066406zm0 0"/><path d="m51.699219 34.132812h17.066406v17.066407h-17.066406zm0 0"/><path d="m51.699219 68.265625h17.066406v17.066406h-17.066406zm0 0"/></g><path d="m179.699219 42.667969h68.265625v68.265625h-68.265625zm0 0" fill="#8fd6e0"/><path d="m222.367188 366.933594h-68.269532c-4.710937 0-8.53125-3.820313-8.53125-8.535156 0-4.710938 3.820313-8.53125 8.53125-8.53125h68.269532c4.710937 0 8.53125 3.820312 8.53125 8.53125 0 4.714843-3.820313 8.535156-8.53125 8.535156zm0 0" fill="#ea9d2d"/><path d="m205.300781 401.066406h-34.136719c-4.710937 0-8.53125-3.820312-8.53125-8.53125 0-4.714844 3.820313-8.535156 8.53125-8.535156h34.136719c4.710938 0 8.53125 3.820312 8.53125 8.535156 0 4.710938-3.820312 8.53125-8.53125 8.53125zm0 0" fill="#ea9d2d"/><path d="m469.832031 230.398438h-100.972656l-51.203125-85.332032h100.976562zm0 0" fill="#fbb540"/><path d="m273.566406 230.398438h-264.535156l42.667969-85.332032h264.535156zm0 0" fill="#fbbe5b"/><path d="m145.566406 273.066406h85.332032v51.199219h-85.332032zm0 0" fill="#d9d9d9"/><path d="m455.972656 384c-.011718-4.703125-.457031-9.390625-1.328125-14.011719l40.789063-23.535156-25.601563-44.375-40.847656 23.578125c-7.148437-6.105469-15.355469-10.855469-24.210937-14.011719v-47.109375h-51.199219v47.128906c-2.097657.742188-4.140625 1.59375-6.144531 2.507813-.519532.238281-1.023438.503906-1.535157.75-1.527343.734375-3.039062 1.511719-4.503906 2.347656-.472656.265625-.933594.546875-1.394531.851563-1.558594.933594-3.078125 1.90625-4.5625 2.9375-.308594.214844-.617188.417968-.921875.640625-1.765625 1.269531-3.5 2.558593-5.121094 4.007812l-40.882813-23.625-25.597656 44.371094 40.789063 23.550781c-.402344 2.1875-.726563 4.386719-.941407 6.632813l-.042968.367187c-.210938 2.3125-.339844 4.648438-.339844 7.011719 0 2.367187.136719 4.746094.351562 7.074219v.085937c.210938 2.320313.554688 4.601563.960938 6.828125l-40.789062 23.550782 25.601562 44.375 40.804688-23.554688c.675781.574219 1.410156 1.09375 2.109374 1.648438.699219.554687 1.382813 1.117187 2.089844 1.648437 1.050782.773437 2.125 1.5 3.210938 2.226563.570312.375 1.132812.757812 1.703125 1.117187 1.238281.777344 2.492187 1.519531 3.78125 2.226563.410156.230468.855469.453124 1.246093.675781 1.460938.765625 2.925782 1.492187 4.4375 2.167969l.546876.238281c1.707031.742187 3.414062 1.433593 5.121093 2.054687v47.085938h51.199219v-47.109375c4.390625-1.558594 8.628906-3.515625 12.664062-5.847657l.195313-.101562c1.808594-1.050781 3.566406-2.183594 5.273437-3.414062.222657-.144532.453126-.28125.664063-.433594 1.886719-1.339844 3.710937-2.75 5.460937-4.269532l40.824219 23.628907 25.601563-44.371094-40.796875-23.550781c.871093-4.617188 1.320312-9.300782 1.335937-13.996094zm-76.796875 25.601562c-14.140625 0-25.601562-11.464843-25.601562-25.601562s11.460937-25.601562 25.601562-25.601562c14.136719 0 25.597657 11.460937 25.597657 25.601562 0 14.136719-11.460938 25.601562-25.597657 25.601562zm0 0" fill="#cdcdcd"/><path d="m333.300781 153.601562h-238.933593c-4.714844 0-8.535157-3.820312-8.535157-8.535156v-136.535156c0-4.710938 3.820313-8.53125 8.535157-8.53125h238.933593c4.714844 0 8.53125 3.820312 8.53125 8.53125v136.535156c0 4.710938-3.816406 8.535156-8.53125 8.535156zm-230.402343-17.066406h221.867187v-119.46875h-221.867187zm0 0"/><path d="m410.097656 34.132812h17.066406v17.066407h-17.066406zm0 0"/><path d="m410.097656 68.265625h17.066406v17.066406h-17.066406zm0 0"/><path d="m410.097656 102.398438h17.066406v17.066406h-17.066406zm0 0"/><path d="m51.699219 0h17.066406v17.066406h-17.066406zm0 0"/><path d="m51.699219 34.132812h17.066406v17.066407h-17.066406zm0 0"/><path d="m51.699219 68.265625h17.066406v17.066406h-17.066406zm0 0"/><path d="m384.5 153.601562h-290.132812c-4.714844 0-8.535157-3.820312-8.535157-8.535156v-136.535156c0-4.710938 3.820313-8.53125 8.535157-8.53125h290.132812c4.714844 0 8.53125 3.820312 8.53125 8.53125v136.535156c0 4.710938-3.816406 8.535156-8.53125 8.535156zm-281.601562-17.066406h273.066406v-119.46875h-273.066406zm0 0"/><path d="m384.5 85.332031h-290.132812c-4.714844 0-8.535157-3.820312-8.535157-8.53125v-68.269531c0-4.710938 3.820313-8.53125 8.535157-8.53125h290.132812c4.714844 0 8.53125 3.820312 8.53125 8.53125v68.269531c0 4.710938-3.816406 8.53125-8.53125 8.53125zm-281.601562-17.066406h273.066406v-51.199219h-273.066406zm0 0"/><path d="m222.367188 366.933594h-68.269532c-4.710937 0-8.53125-3.816406-8.53125-8.535156 0-4.714844 3.820313-8.53125 8.53125-8.53125h68.269532c4.710937 0 8.53125 3.816406 8.53125 8.53125 0 4.71875-3.820313 8.535156-8.53125 8.535156zm0 0"/><path d="m205.300781 401.066406h-34.136719c-4.710937 0-8.53125-3.816406-8.53125-8.53125 0-4.71875 3.820313-8.535156 8.53125-8.535156h34.136719c4.710938 0 8.53125 3.816406 8.53125 8.535156 0 4.714844-3.820312 8.53125-8.53125 8.53125zm0 0"/><path d="m469.832031 238.933594h-100.972656c-3 0-5.777344-1.570313-7.320313-4.140625l-51.199218-85.335938c-1.582032-2.636719-1.625-5.917969-.109375-8.59375 1.519531-2.675781 4.351562-4.328125 7.425781-4.328125h100.976562c3 0 5.773438 1.570313 7.316407 4.140625l51.199219 85.332031c1.585937 2.636719 1.625 5.921876.109374 8.597657-1.515624 2.675781-4.351562 4.328125-7.425781 4.328125zm-96.140625-17.066406h81.066406l-40.957031-68.265626h-81.066406zm0 0"/><path d="m273.566406 238.933594h-264.535156c-2.957031 0-5.703125-1.535156-7.257812-4.046875-1.554688-2.515625-1.695313-5.65625-.375-8.304688l42.667968-85.332031c1.445313-2.890625 4.398438-4.714844 7.632813-4.714844h264.535156c2.957031 0 5.699219 1.53125 7.257813 4.042969 1.558593 2.519531 1.699218 5.660156.375 8.304687l-42.667969 85.332032c-1.449219 2.894531-4.398438 4.71875-7.632813 4.71875zm-250.726562-17.066406h245.449218l34.136719-68.265626h-245.453125zm0 0"/><path d="m247.964844 119.464844h-68.265625c-4.710938 0-8.535157-3.820313-8.535157-8.53125v-68.265625c0-4.714844 3.824219-8.535157 8.535157-8.535157h68.265625c4.714844 0 8.535156 3.820313 8.535156 8.535157v68.265625c0 4.710937-3.820312 8.53125-8.535156 8.53125zm-59.730469-17.066406h51.199219v-51.199219h-51.199219zm0 0"/><path d="m230.898438 332.800781h-85.332032c-4.714844 0-8.535156-3.816406-8.535156-8.535156v-51.199219c0-4.714844 3.820312-8.53125 8.535156-8.53125h85.332032c4.714843 0 8.535156 3.816406 8.535156 8.53125v51.199219c0 4.71875-3.820313 8.535156-8.535156 8.535156zm-76.800782-17.066406h68.269532v-34.132813h-68.269532zm0 0"/><path d="m316.234375 326.398438c-4.71875 0-8.535156-3.816407-8.535156-8.53125v-164.265626h-256c-4.710938 0-8.535157-3.820312-8.535157-8.535156 0-4.710937 3.824219-8.53125 8.535157-8.53125h264.535156c4.714844 0 8.53125 3.820313 8.53125 8.53125v172.800782c0 4.714843-3.816406 8.53125-8.53125 8.53125zm0 0"/><path d="m266.457031 435.199219h-214.757812c-4.710938 0-8.535157-3.816407-8.535157-8.53125v-196.269531c0-4.710938 3.824219-8.53125 8.535157-8.53125 4.710937 0 8.53125 3.820312 8.53125 8.53125v187.734374h206.226562c4.71875 0 8.535157 3.816407 8.535157 8.535157 0 4.714843-3.816407 8.53125-8.535157 8.53125zm0 0"/><path d="m418.632812 326.398438c-4.714843 0-8.535156-3.816407-8.535156-8.53125v-86.757813c0-4.714844 3.816406-8.535156 8.535156-8.535156 4.714844 0 8.53125 3.820312 8.53125 8.535156v86.757813c0 4.714843-3.816406 8.53125-8.53125 8.53125zm0 0"/><path d="m418.632812 153.601562h-366.933593c-4.710938 0-8.535157-3.820312-8.535157-8.535156 0-4.710937 3.824219-8.53125 8.535157-8.53125h366.933593c4.714844 0 8.53125 3.820313 8.53125 8.53125 0 4.710938-3.816406 8.535156-8.53125 8.535156zm0 0"/><path d="m263.609375 435.199219h-211.910156c-4.710938 0-8.535157-3.816407-8.535157-8.53125v-196.269531c0-4.710938 3.824219-8.53125 8.535157-8.53125 4.710937 0 8.53125 3.820312 8.53125 8.53125v187.734374h203.375c4.71875 0 8.535156 3.816407 8.535156 8.535157 0 4.714843-3.816406 8.53125-8.53125 8.53125zm0 0"/><path d="m404.75 512h-51.199219c-4.71875 0-8.535156-3.816406-8.535156-8.53125v-41.328125c-2.292969-1.015625-3.914063-1.824219-5.542969-2.671875l-1.507812-.820312c-1.300782-.707032-2.691406-1.53125-4.066406-2.390626l-1.484376-.972656c-1.566406-1.042968-2.714843-1.816406-3.824218-2.644531l-35.824219 20.675781c-1.964844 1.117188-4.308594 1.417969-6.476563.851563-2.191406-.585938-4.046874-2.019531-5.179687-3.976563l-25.601563-44.367187c-2.355468-4.082031-.953124-9.300781 3.125-11.65625l35.757813-20.652344c-.058594-.515625-.117187-1.03125-.167969-1.550781-.023437-.265625-.03125-.605469-.03125-.875-.210937-1.804688-.351562-4.441406-.351562-7.074219s.140625-5.234375.375-7.808594c.058594-.589843.125-1.15625.183594-1.714843l-35.757813-20.652344c-4.078125-2.355469-5.480469-7.574219-3.125-11.65625l25.601563-44.367188c1.132812-1.957031 2.996093-3.390625 5.179687-3.976562 2.167969-.582032 4.511719-.28125 6.476563.851562l35.859374 20.726563c.300782-.21875.597657-.433594.898438-.652344.058594-.039063.667969-.464844.726562-.507813 1.957032-1.359374 3.648438-2.449218 5.398438-3.484374.234375-.164063.882812-.566407 1.558594-.949219 1.59375-.90625 3.273437-1.773438 4.976562-2.589844l1.773438-.859375c.359375-.15625.71875-.324219 1.074218-.484375v-41.355469c0-4.71875 3.816407-8.535156 8.535157-8.535156h51.199219c4.714843 0 8.53125 3.816406 8.53125 8.535156v41.324219c5.816406 2.546875 11.320312 5.722656 16.433593 9.507813l35.828125-20.675782c1.957032-1.132812 4.289063-1.433594 6.472656-.851562 2.191407.585937 4.050782 2.019531 5.183594 3.976562l25.601563 44.367188c2.355469 4.082031.957031 9.300781-3.125 11.65625l-35.75 20.636718c.363281 3.164063.546875 6.339844.558593 9.507813v.050781c-.011718 3.15625-.203124 6.332032-.570312 9.480469l35.761719 20.644531c4.082031 2.355469 5.480469 7.574219 3.125 11.65625l-25.601563 44.367188c-1.132812 1.957031-3 3.390625-5.183594 3.976562-2.183593.605469-4.523437.273438-6.484374-.859375l-35.789063-20.707031c-.417969.304688-.84375.613281-1.265625.914062-.136719.09375-.933594.617188-1.070312.707032-1.488282 1.09375-3.488282 2.386718-5.539063 3.578125-2.84375 1.632812-5.710937 3.074219-8.609375 4.347656v41.328125c0 4.714844-3.816406 8.53125-8.53125 8.53125zm-42.667969-17.066406h34.132813v-38.582032c0-3.617187 2.277344-6.835937 5.683594-8.042968 3.890624-1.382813 7.683593-3.132813 11.25-5.191406 1.742187-1 3.257812-1.976563 4.742187-3.042969.042969-.03125.757813-.5.800781-.53125 1.566406-1.117188 3.183594-2.359375 4.722656-3.699219 2.742188-2.375 6.703126-2.769531 9.867188-.933594l33.425781 19.339844 17.066407-29.574219-33.40625-19.292969c-3.144532-1.816406-4.792969-5.414062-4.117188-8.984374.773438-4.082032 1.175781-8.257813 1.191406-12.414063-.007812-4.132813-.410156-8.308594-1.183594-12.402344-.675781-3.566406.972657-7.164062 4.117188-8.980469l33.398438-19.277343-17.066407-29.582031-33.457031 19.308593c-3.117188 1.800781-7.058594 1.449219-9.808594-.902343-6.390625-5.457032-13.632812-9.648438-21.527344-12.457032-3.398437-1.207031-5.671874-4.433594-5.671874-8.042968v-38.582032h-34.136719v38.601563c0 3.613281-2.28125 6.839843-5.691407 8.046875-1.855468.652344-3.65625 1.410156-5.421874 2.21875-.042969.015625-1.351563.65625-1.382813.675781-1.367187.65625-2.703125 1.339844-4.003906 2.074219l-.839844.523437c-1.808594 1.085938-3.148437 1.941407-4.457031 2.851563l-5.800782-6.359375 4.976563 6.933593c-1.527344 1.09375-3.011719 2.191407-4.410156 3.441407-2.757813 2.46875-6.765625 2.867187-9.949219 1.027343l-33.492188-19.359374-17.066406 29.582031 33.398438 19.292969c3.125 1.808593 4.777344 5.382812 4.125 8.933593-.355469 1.941407-.648438 3.90625-.839844 5.90625-.234375 2.394531-.34375 4.460938-.34375 6.558594 0 2.101563.125 4.21875.316406 6.285156.027344.265625.035156.609375.035156.875.15625 1.273438.464844 3.300781.824219 5.28125.648438 3.550781-1 7.125-4.125 8.933594l-33.398437 19.292969 17.066406 29.582031 33.414062-19.28125c3.117188-1.808594 7.050782-1.449219 9.800782.890625l3.75 2.933594c.949218.714844 1.910156 1.359375 2.875 2l1.507812 1c1.070313.65625 2.175782 1.316406 3.328125 1.949218l1.332031.726563c1.082032.566406 2.390626 1.207031 3.734376 1.808594 2.015624.882812 3.566406 1.507812 5.117187 2.074219 3.367187 1.234374 5.597656 4.433593 5.597656 8.015624zm17.09375-76.800782c-18.828125 0-34.136719-15.308593-34.136719-34.132812s15.308594-34.132812 34.136719-34.132812c18.824219 0 34.132813 15.308593 34.132813 34.132812s-15.308594 34.132812-34.132813 34.132812zm0-51.199218c-9.410156 0-17.070312 7.660156-17.070312 17.066406 0 9.410156 7.660156 17.066406 17.070312 17.066406 9.40625 0 17.066407-7.65625 17.066407-17.066406s-7.660157-17.066406-17.066407-17.066406zm0 0"/></svg>